<svg width="106" height="49" viewBox="0 0 106 49" fill="none" xmlns="http://www.w3.org/2000/svg">
<path d="M19.728 35H16.112V13.56H24.88C29.392 13.56 32.912 15.864 32.912 20.984C32.912 25.88 29.424 28.216 24.88 28.216H19.728V35ZM24.528 16.76H19.728V25.016H24.528C26.992 25.016 29.168 24.088 29.168 20.984C29.168 17.656 26.992 16.76 24.528 16.76ZM43.228 35.32C37.5 35.32 34.716 32.344 34.716 25.848V13.56H38.3V25.88C38.3 30.136 39.74 31.864 43.26 31.864C46.844 31.864 48.22 30.136 48.22 25.88V13.56H51.804V25.848C51.804 32.344 49.084 35.32 43.228 35.32ZM59.323 35H55.707V13.56H65.371C69.723 13.56 72.987 15.8 72.987 20.216C72.987 23.8 70.523 25.912 67.163 26.296C68.443 26.68 69.307 27.48 70.075 28.824L73.723 35H69.563L65.851 28.632C65.051 27.192 63.963 26.68 61.947 26.68H59.323V35ZM65.019 16.76H59.323V23.736H65.019C67.291 23.736 69.243 22.904 69.243 20.312C69.243 17.592 67.291 16.76 65.019 16.76ZM90.4225 35H75.2545V13.56H90.4225V16.76H78.8705V22.456H88.4385V25.656H78.8705V31.8H90.4225V35Z" fill="#3C3C3C"/>
</svg>
